<?xml version="1.0" encoding="UTF-8"?>
<svg width="18px" height="18px" viewBox="0 0 18 18" version="1.1" xmlns="http://www.w3.org/2000/svg" xmlns:xlink="http://www.w3.org/1999/xlink">
    <!-- Generator: Sketch 51.3 (57544) - http://www.bohemiancoding.com/sketch -->
    <title>ion-ios-close-outline - Ionicons</title>
    <desc>Created with Sketch.</desc>
    <defs></defs>
    <g id="Page-1" stroke="none" stroke-width="1" fill="none" fill-rule="evenodd">
        <g id="Artboard" transform="translate(-77.000000, -26.000000)" fill="#4FB477">
            <path d="M91.5605469,29.0957031 C93.228524,30.7636802 94.0625,32.7734257 94.0625,35.125 C94.0625,37.4765743 93.228524,39.4863198 91.5605469,41.1542969 C89.8925698,42.822274 87.8828243,43.65625 85.53125,43.65625 C83.1796757,43.65625 81.1699302,42.822274 79.5019531,41.1542969 C77.833976,39.4863198 77,37.4765743 77,35.125 C77,32.7734257 77.833976,30.7636802 79.5019531,29.0957031 C81.1699302,27.427726 83.1796757,26.59375 85.53125,26.59375 C87.8828243,26.59375 89.8925698,27.427726 91.5605469,29.0957031 Z M91.0683594,40.6621094 C92.5722731,39.1581956 93.3242188,37.3125109 93.3242188,35.125 C93.3242188,32.9374891 92.5722731,31.0918044 91.0683594,29.5878906 C89.5644456,28.0839769 87.7187609,27.3320312 85.53125,27.3320312 C83.3437391,27.3320312 81.4980544,28.0839769 79.9941406,29.5878906 C78.4902269,31.0918044 77.7382812,32.9374891 77.7382812,35.125 C77.7382812,37.3125109 78.4902269,39.1581956 79.9941406,40.6621094 C81.4980544,42.1660231 83.3437391,42.9179688 85.53125,42.9179688 C87.7187609,42.9179688 89.5644456,42.1660231 91.0683594,40.6621094 Z M88.9765625,31.1875 L89.46875,31.6796875 L86.0234375,35.125 L89.46875,38.5703125 L88.9765625,39.0625 L85.53125,35.6171875 L82.0859375,39.0625 L81.59375,38.5703125 L85.0390625,35.125 L81.59375,31.6796875 L82.0859375,31.1875 L85.53125,34.6328125 L88.9765625,31.1875 Z" id="ion-ios-close-outline---Ionicons"></path>
        </g>
    </g>
</svg>